<svg width="36px" height="43px" viewBox="102 -1 36 43" version="1.1" xmlns="http://www.w3.org/2000/svg" xmlns:xlink="http://www.w3.org/1999/xlink">
    <!-- Generator: Sketch 39.1 (31720) - http://www.bohemiancoding.com/sketch -->
    <desc>Created with Sketch.</desc>
    <defs></defs>
    <g id="noun_563719" stroke="none" stroke-width="1" fill="none" fill-rule="evenodd" transform="translate(102.154297, 0.855469)">
        <g id="Group">
            <g id="Shape">
                <g>
                    <path d="M2.82239383,21.6764816 C2.19508101,20.788689 2.08031992,19.8403323 2.77613238,18.7501762 C3.60114083,17.4576038 5.24695534,17.3793316 12.3862997,18.0176385 C14.4322995,18.2005652 15.8749334,18.3065021 17.4147717,18.3709992 C30.368872,18.9135905 34.0757284,13.3050727 26.9131988,7.41203439 C26.5214326,7.08970504 25.9425439,7.14599476 25.6202144,7.53776101 C25.2978852,7.92952723 25.3541749,8.50841609 25.7459411,8.83074544 C31.3026674,13.4025941 28.9158105,17.0139367 17.4916558,16.5354283 C15.9867102,16.4723927 14.5694661,16.3683202 12.5499038,16.1877573 C4.31871888,15.4518322 2.65123716,15.5311348 1.2275117,17.7617401 C0.0871641958,19.5483663 0.297538115,21.2868434 1.32198277,22.7366696 C1.63335701,23.177336 1.94796289,23.494173 2.18061289,23.6809963 C2.57618202,23.9986472 3.15436105,23.9354818 3.47201187,23.5399126 C3.7896627,23.1443436 3.72649744,22.5661645 3.3309283,22.2485137 C3.22178717,22.160871 3.02370631,21.9613853 2.82239383,21.6764816 L2.82239383,21.6764816 Z" fill="#8899EE"></path>
                    <path d="M31.1741544,15.2314365 C30.1612303,14.8285958 29.1718991,14.6974432 28.4762962,14.6974432 C27.9689728,14.6974432 27.557706,15.10871 27.557706,15.6160334 C27.557706,16.1233567 27.9689728,16.5346236 28.4762962,16.5346236 C28.58568,16.5346236 28.8040684,16.5470312 29.0925761,16.5852778 C29.5754395,16.6492895 30.0564811,16.7640758 30.4952279,16.9385658 C32.4231575,17.7053049 32.984079,19.2754553 31.3306313,22.5507914 C31.1020056,23.0036791 31.2838058,23.5561549 31.7366934,23.7847806 C32.1895811,24.0134063 32.7420569,23.8316061 32.9706826,23.3787186 C35.103185,19.1544167 34.120312,16.4031257 31.1741544,15.2314365 L31.1741544,15.2314365 Z" fill="#8899EE"></path>
                    <path d="M7.91957875,12.6449274 C9.72050736,12.1543991 12.5612108,12.2231788 17.9442371,12.770047 C22.7070607,13.253908 26.4047555,11.5336591 26.8220951,8.52626095 C27.2576725,5.38743901 23.9605784,2.2172016 17.7559559,0.051321391 C17.2769765,-0.115878444 16.7531448,0.13686878 16.585945,0.615848118 C16.4187451,1.09482745 16.6714924,1.61865917 17.1504717,1.78585901 C22.6271145,3.69761946 25.2830047,6.25132358 25.0023528,8.27373354 C24.7525215,10.0740484 22.0337706,11.338871 18.1299227,10.9422744 C12.4992886,10.3702514 9.54288091,10.2986703 7.43676549,10.8723239 C4.55250135,11.657926 3.67609609,13.7858758 4.97753177,17.0621353 C5.1648214,17.5336219 5.69886503,17.764009 6.1703516,17.5767194 C6.64183818,17.3894297 6.8722253,16.8553861 6.68493567,16.3838996 C5.76692683,14.0728862 6.15735326,13.124914 7.91957875,12.6449274 L7.91957875,12.6449274 Z" fill="#8899EE"></path>
                    <path d="M14.5384796,6.44533748 C16.6723485,6.65714413 18.6351265,6.01557028 19.5585176,4.7673095 C20.6642121,3.27260727 20.0201735,1.45861557 17.9451358,0.142819167 C17.5166893,-0.128861855 16.9491238,-0.00177831661 16.6774428,0.426668194 C16.4057617,0.855114705 16.5328453,1.42268021 16.9612918,1.69436123 C18.2266646,2.49674328 18.4621947,3.16013474 18.0815331,3.6747216 C17.5916934,4.3368978 16.2651223,4.77051452 14.7199454,4.61714111 C9.87572845,4.1363068 6.93913879,6.90118171 8.60186247,11.5715645 C8.77201539,12.0495027 9.29739709,12.2990121 9.77533534,12.1288591 C10.2532736,11.9587062 10.5027829,11.4333245 10.33263,10.9553863 C9.17810713,7.71247598 10.9068078,6.08485974 14.5384796,6.44533748 L14.5384796,6.44533748 Z" fill="#8899EE"></path>
                    <path d="M7.91292247,39.0784059 C8.28207056,39.231094 9.12871163,39.48994 10.3555693,39.7441801 C12.3702777,40.1616856 14.7385321,40.4112419 17.4464886,40.4112419 C20.1546584,40.4112419 22.5297362,40.1597896 24.5556696,39.7391655 C25.7888338,39.483136 26.6417301,39.2225913 27.0989662,39.0398444 C28.2849678,38.6746323 29.4812022,37.3963907 29.8039482,36.1054069 L33.0350953,23.180819 L33.2578861,22.2896555 L31.2527685,22.7352371 L28.0216214,35.6598253 C27.8536495,36.3317127 27.1239853,37.1113988 26.4856726,37.3095802 C26.3385665,37.3652753 26.160466,37.4281493 25.8847462,37.5123766 C25.4104215,37.6572745 24.8422773,37.8033006 24.1821989,37.940346 C22.277296,38.3358419 20.027206,38.5740615 17.4464886,38.5740615 C14.8655578,38.5740615 12.6220878,38.3376544 10.7283653,37.9452208 C10.0723747,37.8092806 9.50861336,37.6644566 9.0386795,37.5207823 C8.76574741,37.4373381 8.58987891,37.3751192 8.51270583,37.344169 C7.78010647,37.12542 7.04104478,36.3385811 6.87135586,35.6598253 L3.64020882,22.7352371 L1.63509118,22.2896555 L1.85788204,23.180819 L5.08902907,36.1054069 C5.41505457,37.4095091 6.63025656,38.7032686 7.91292247,39.0784059 Z" fill="#655193"></path>
                    <path d="M3.64303652,24.1448301 C4.55441483,24.3645025 5.59898782,24.5837204 6.76156844,24.7880661 C10.0778318,25.3709625 13.6820768,25.7205256 17.4532138,25.7205256 C21.2243508,25.7205256 24.8285958,25.3709625 28.1448591,24.7880661 C29.3074397,24.5837204 30.3520127,24.3645025 31.2633911,24.1448301 C31.8149587,24.0118839 32.2026905,23.9073365 32.4113644,23.8455726 C32.8978265,23.7015878 33.1754593,23.1905097 33.0314745,22.7040475 C32.8874898,22.2175855 32.3764117,21.9399526 31.8899495,22.0839374 C31.7106835,22.1369972 31.3531891,22.2333915 30.8328982,22.3587987 C29.9578455,22.5697154 28.9506622,22.7810867 27.8268152,22.9786242 C24.6104281,23.5439656 21.111181,23.8833452 17.4532138,23.8833452 C13.7952465,23.8833452 10.2959995,23.5439656 7.07961231,22.9786242 C5.95576526,22.7810867 4.94858205,22.5697154 4.07352932,22.3587987 C3.55323843,22.2333915 3.19574401,22.1369972 3.016478,22.0839374 C2.53001587,21.9399526 2.01893774,22.2175855 1.87495301,22.7040475 C1.7309683,23.1905097 2.00860109,23.7015878 2.4950632,23.8455726 C2.70373707,23.9073365 3.09146878,24.0118839 3.64303652,24.1448301 L3.64303652,24.1448301 Z" fill="#655193"></path>
                    <path d="M16.5346236,33.8041193 C16.5346236,34.3114427 16.9458904,34.7227095 17.4532138,34.7227095 C17.9605371,34.7227095 18.371804,34.3114427 18.371804,33.8041193 L18.371804,25.5372093 C18.371804,25.0298859 17.9605371,24.6186191 17.4532138,24.6186191 C16.9458904,24.6186191 16.5346236,25.0298859 16.5346236,25.5372093 L16.5346236,33.8041193 L16.5346236,33.8041193 Z" fill="#655193"></path>
                    <path d="M11.0409208,34.1679878 C11.1404151,34.6654591 11.6243515,34.9880834 12.1218229,34.8885891 C12.6192944,34.7890949 12.9419187,34.3051585 12.8424244,33.8076869 L11.005244,24.621785 C10.9057497,24.1243136 10.4218133,23.8016893 9.92434182,23.9011836 C9.42687035,24.0006778 9.1042461,24.4846143 9.20374039,24.9820858 L11.0409208,34.1679878 L11.0409208,34.1679878 Z" fill="#655193"></path>
                    <path d="M22.0640032,33.8076869 C21.9645089,34.3051585 22.2871332,34.7890949 22.7846046,34.8885891 C23.2820761,34.9880834 23.7660125,34.6654591 23.8655067,34.1679878 L25.7026871,24.9820858 L23.9011836,24.621785 L22.0640032,33.8076869 L22.0640032,33.8076869 Z" fill="#655193"></path>
                </g>
            </g>
        </g>
    </g>
</svg>
